PathFileType	4	(X/Y/Z)	D:\Research_projects\MuscleProsody\BulkSports2Dtrack\RetrackedSports2D\p1_sample60_cam2\p1_sample60_cam2_Sports2D\p1_sample60_cam2_Sports2D_px_person00.trc
DataRate	CameraRate	NumFrames	NumMarkers	Units	OrigDataRate	OrigDataStartFrame	OrigNumFrames
60	60	8	22	m	60	487	780
Frame#	Time	Hip			RHip			RKnee			RAnkle			RBigToe			RSmallToe			RHeel			LHip			LKnee			LAnkle			LBigToe			LSmallToe			LHeel			Neck			Head			Nose			RShoulder			RElbow			RWrist			LShoulder			LElbow			LWrist		
		X1	Y1	Z1	X2	Y2	Z2	X3	Y3	Z3	X4	Y4	Z4	X5	Y5	Z5	X6	Y6	Z6	X7	Y7	Z7	X8	Y8	Z8	X9	Y9	Z9	X10	Y10	Z10	X11	Y11	Z11	X12	Y12	Z12	X13	Y13	Z13	X14	Y14	Z14	X15	Y15	Z15	X16	Y16	Z16	X17	Y17	Z17	X18	Y18	Z18	X19	Y19	Z19	X20	Y20	Z20	X21	Y21	Z21	X22	Y22	Z22
487	8.116666666666667	246.7559675038262	513.8832651074314	0.0	218.30137697725723	509.5619208032176	0.0	216.19502690896766	632.0379793219794	0.0	219.85261935205648	734.9696822579203	0.0	220.15752057482703	769.606975182997	0.0	205.5144868417308	761.7503126007989	0.0	226.57178546775373	739.7070621807242	0.0	274.9900562286615	512.5269067488107	0.0	268.0971790470637	634.3495958342238	0.0	270.0249673080372	735.4112060849932	0.0	264.544898248473	770.6426796678963	0.0	280.3845330588827	765.4015416413893	0.0	267.25439860800645	737.2071493707889	0.0	253.52739653365188	328.8877624867236	0.0	249.17435138783316	243.06454260620865	0.0	236.33662650794895	293.93675312034424	0.0	205.1192755682545	357.2173013031715	0.0	157.60466938409192	427.73686185562974	0.0	180.1420389677188	385.4683158670016	0.0	305.1202807437375	357.05523728881934	0.0	342.20988023691586	435.9655653614878	0.0	298.3925503617585	414.2012138249796	0.0
488	8.133333333333333	246.7551799833983	513.8239596201095	0.0	218.29104245128437	509.77518223736007	0.0	216.20504216721483	632.3069901534119	0.0	219.8364660255122	734.6325242170691	0.0	220.1092200420035	769.6498585251661	0.0	205.64940413903847	761.8517639856203	0.0	226.53819073040836	739.5506163015573	0.0	274.96860603437864	512.6949002751203	0.0	268.01689199528914	634.5320711025184	0.0	269.9498578454038	735.2651488221626	0.0	264.52751362264956	770.7441817780528	0.0	280.2817012654485	765.5561961829067	0.0	267.3177888182228	737.3168958555372	0.0	253.49222026714025	329.02678186874533	0.0	248.76610563422727	243.37592249412856	0.0	236.25031033871787	294.1665282334693	0.0	205.14966507903543	357.44692804396607	0.0	161.3512253884479	430.26849006017534	0.0	174.03111592507668	385.6139228457129	0.0	304.9821952659436	357.2366115458828	0.0	339.21694533652146	437.6320630297554	0.0	304.0038226159808	414.3265097093458	0.0
489	8.15	246.7566890028902	513.8443700662259	0.0	218.30815671438157	510.2079910846965	0.0	216.24636258611466	632.6810379972635	0.0	219.8431386368949	734.2873790024174	0.0	220.01594576537917	769.6874263099279	0.0	205.76596807490853	761.9677060940503	0.0	226.46245121992888	739.4333006990853	0.0	274.9020582932933	513.0546516761362	0.0	267.9402080095043	634.8276061696059	0.0	269.84534533804145	735.0910722967909	0.0	264.53428059120563	770.777144182132	0.0	280.17038542510335	765.7226413569563	0.0	267.3784388306344	737.4722796501744	0.0	253.45390305639103	329.1371662299724	0.0	248.42335089205332	243.76398255509562	0.0	236.21084399682408	294.35652109377054	0.0	205.0466350357769	357.74294948338996	0.0	164.91801667218965	432.50158197808116	0.0	167.25263288384414	387.86178933615327	0.0	304.9162463509048	357.45760104537305	0.0	336.1356466641659	439.07329575835115	0.0	310.1165071049543	416.12831634336163	0.0
490	8.166666666666666	246.75904902928224	513.9360750951461	0.0	218.3443109522029	510.8296058208706	0.0	216.31329812695137	633.1421919061299	0.0	219.87497123765363	733.9367350956713	0.0	219.8946662416245	769.7095136235159	0.0	205.86172434324538	762.088031241557	0.0	226.36465844513398	739.3540451639697	0.0	274.79319485037223	513.5752652987472	0.0	267.8735105747801	635.2131784377179	0.0	269.72233037307126	734.880419806678	0.0	264.55957072802653	770.7303613349346	0.0	280.06084678376334	765.8869469732502	0.0	267.4401708404643	737.6588651033869	0.0	253.4207624437068	329.22786856100356	0.0	248.15324087239313	244.20801866741684	0.0	236.21378041580633	294.51532636407643	0.0	204.8319597972718	358.08823678102425	0.0	168.13048725349304	434.33361876345793	0.0	160.16373888379	392.0225486800833	0.0	304.91979455326253	357.6997155335238	0.0	333.1289387832638	440.1783820088556	0.0	316.45606770787606	419.52105315239464	0.0
491	8.183333333333334	246.7622876738449	514.0820566140217	0.0	218.39183634864662	511.5868246562085	0.0	216.39822321888695	633.6621537941019	0.0	219.9321233224636	733.5863836841131	0.0	219.7633332280101	769.7079385862301	0.0	205.932353697689	762.2023686469398	0.0	226.26979977189248	739.3116925072264	0.0	274.64882957269555	514.2081224863205	0.0	267.8219154085476	635.6544629609465	0.0	269.5927752299607	734.6283119324512	0.0	264.59235917262134	770.6028094780634	0.0	279.96284332166584	766.0344691858336	0.0	267.50543801094796	737.8611080455466	0.0	253.3977879218592	329.3090356164035	0.0	247.95490302731082	244.68166936491764	0.0	236.25488696473354	294.6520929767686	0.0	204.5374943654684	358.4624834004896	0.0	170.84827767314346	435.70344242852514	0.0	153.1147914742425	397.7614804083053	0.0	304.9818340468017	357.94159000876937	0.0	330.36597611554834	440.8701918241482	0.0	322.7312645645656	424.27021522331427	0.0
492	8.2	246.7680466715845	514.2600144058733	0.0	218.4466473323192	512.4134970208515	0.0	216.49227541643234	634.2067210704539	0.0	220.01130032065797	733.2441966368483	0.0	219.63458151024042	769.6806765104551	0.0	205.97427477388172	762.3017200750212	0.0	226.19881677780685	739.3034597697051	0.0	274.48073826134475	514.8958861071246	0.0	267.78674941842735	636.1137125796615	0.0	269.46751912600865	734.3351372055513	0.0	264.62186805165567	770.4045889771569	0.0	279.8829497376028	766.1509872388106	0.0	267.57485018828766	738.0598047920301	0.0	253.38399116452726	329.3868440827109	0.0	247.81962009381283	245.15814474740128	0.0	236.330000565244	294.7736716765506	0.0	204.19478973999907	358.84505406494196	0.0	172.98360816741612	436.59603112463225	0.0	146.41735734810092	404.62701440700755	0.0	305.0837364986993	358.16311408221907	0.0	327.9971072409732	441.1186403212483	0.0	328.66638210946996	430.0118866942873	0.0
493	8.216666666666667	246.77809579569694	514.4446857070923	0.0	218.50921625592048	513.2431096120929	0.0	216.58850654316242	634.7404870399268	0.0	220.10514450188964	732.9168172688187	0.0	219.51761739925638	769.6299385938916	0.0	205.9896689028225	762.3788804801708	0.0	226.16051634409487	739.3201036832074	0.0	274.30205830034384	515.5826482298203	0.0	267.765524440028	636.5544515241824	0.0	269.3558142074588	734.0084345424816	0.0	264.64119482524075	770.1531381583518	0.0	279.8225254671096	766.2261408438818	0.0	267.64911720445207	738.2361412919801	0.0	253.37474227023387	329.4606648882006	0.0	247.73450853292783	245.6121119581764	0.0	236.4351411320744	294.8823382488193	0.0	203.82798804973038	359.2182302622218	0.0	174.508282752876	437.0381159297891	0.0	140.32827469466943	412.10320287787954	0.0	305.2042594027162	358.34938091693317	0.0	326.1263768639045	440.9452048855858	0.0	334.0332747924891	436.3090660351832	0.0
494	8.233333333333333	246.79351268243374	514.6120912124605	0.0	218.58307987224853	514.0209220387807	0.0	216.68459845086693	635.233064714532	0.0	220.2043181619612	732.6084420775544	0.0	219.4220913757088	769.5595079056576	0.0	205.9873285675167	762.4286221385812	0.0	226.15040889611615	739.3459586192481	0.0	274.1229533651545	516.2228358164923	0.0	267.75488993477046	636.9455867507805	0.0	269.26591950741926	733.6627089169357	0.0	264.64770503525347	769.86767909317	0.0	279.77912012280865	766.2564476951214	0.0	267.7295953425792	738.3775897186313	0.0	253.3652302447819	329.52522955495476	0.0	247.68920650633578	246.01966718070219	0.0	236.56649200582055	294.9764037897898	0.0	203.4508858773977	359.569177412337	0.0	175.4516878619814	437.08849587759926	0.0	135.04161684992226	419.67659877337394	0.0	305.325122005226	358.4927217888937	0.0	324.79102037758946	440.4155260254834	0.0	338.6734493067014	442.7091454403027	0.0
